# xmcd
#
# Track frame offsets:
#	150
#	16525
#	29915
#	44805
#	63520
#	82182
#	95167
#	111135
#	127795
#	143850
#	158747
#	174890
#	189290
#	205190
#	217465
#	227545
#	238740
#	253047
#
# Disc length: 3609 seconds
#
# Revision: 2
# Processed by: cddbd v1.5.2PL0 Copyright (c) Steve Scherf et al.
# Submitted via: audiograbber 1.83.01
#
DISCID=020e1712
DTITLE=陳美齡 - 陳美齡精選
DYEAR=1997
DGENRE=
TTITLE0=雨中康乃馨
TTITLE1=別了 Jolene
TTITLE2=蝴蝶戀
TTITLE3=趁有好風吹
TTITLE4=願君真愛不相欺
TTITLE5=一切都可愛
TTITLE6=再見我愛
TTITLE7=仍在人海中
TTITLE8=我再不願流浪
TTITLE9=嘆息
TTITLE10=他的眼睛
TTITLE11=尋夢去
TTITLE12=晨星
TTITLE13=問我是誰
TTITLE14=五月荷花
TTITLE15=錫晒你
TTITLE16=想你，想你
TTITLE17=痴痴愛在這裡
EXTD=
EXTT0=
EXTT1=
EXTT2=
EXTT3=
EXTT4=
EXTT5=
EXTT6=
EXTT7=
EXTT8=
EXTT9=
EXTT10=
EXTT11=
EXTT12=
EXTT13=
EXTT14=
EXTT15=
EXTT16=
EXTT17=
PLAYORDER=
